<svg width="21" height="22" viewBox="0 0 21 22" fill="none" xmlns="http://www.w3.org/2000/svg">
<path d="M0.497461 6.3578V5.51848C1.52524 5.52005 2.53284 5.23119 3.40484 4.68493C2.63292 5.53306 1.61646 6.11787 0.497461 6.3578ZM5.9133 0.959983C5.93947 0.809911 5.95957 0.658851 5.97351 0.507214V0L9.92598 0L9.92598 15.7508C9.9323 17.5868 11.4171 19.0736 13.2484 19.0736C13.786 19.0736 14.2936 18.9455 14.7432 18.7179C14.136 19.5174 13.1774 20.0336 12.0984 20.0336C10.2674 20.0336 8.78229 18.5469 8.77589 16.7107L8.77589 0.959983L5.9133 0.959983ZM12.2399 9.42341V8.52989C12.5701 8.48459 12.9031 8.46186 13.2365 8.46202C17.2481 8.46194 20.5 11.7254 20.5 15.7508C20.5 18.2745 19.2219 20.4987 17.2798 21.807C18.5608 20.493 19.35 18.6944 19.35 16.7106C19.35 12.7365 16.1808 9.50511 12.2399 9.42341Z" fill="#00BCD3"/>
</svg>
